<svg xmlns="http://www.w3.org/2000/svg" width="2.005in" height="0.504in" viewBox="0 0 144.329 36.266"><title>logo-hunter-whitered</title><path d="M3.591,32.052l-.426,1.581H132.774l.426-1.581Z" fill="#c00c00"/><path d="M36.359,22.5a3.076,3.076,0,0,0-2.184.842l.105-.811H32.112l-1.449,6.042h2.315l.025-.1c.214-.832.872-3.708.872-3.716a1.28,1.28,0,0,1,1.149-.716.648.648,0,0,1,.544.18.781.781,0,0,1,.115.58c-.31,1.315-.829,3.536-.829,3.641v.131h2.285l.914-4.24a1.366,1.366,0,0,0-.161-1.112A2.129,2.129,0,0,0,36.359,22.5Z" fill="#fff"/><path d="M28.845,22.565l-1.483,6.042h2.482l1.518-6.042Z" fill="#fff"/><path d="M42.746,22.6c-1.957-.065-4.245.323-4.588,3.93a1.669,1.669,0,0,0,.48,1.355,3.137,3.137,0,0,0,2.171.827c.054,0,.107,0,.158,0l.158-.008a3.69,3.69,0,0,0,3.547-1.832l.11-.2-2.368,0-.027.1c-.143.506-.945.718-1.179.693-.771-.083-.867-.45-.845-1.314h4.493l.027-.1a5.342,5.342,0,0,0,.236-1.481C45.117,23.14,43.52,22.624,42.746,22.6Zm-2.157,2.187a1.1,1.1,0,0,1,.64-.676,1.664,1.664,0,0,1,1.571.012.76.76,0,0,1,.309.694Z" fill="#fff"/><path d="M114.857,18.526l1.129-4.072H104.38c.1-.349.241-.988.358-1.52.063-.291.124-.57.16-.712h11.539l.029-.091c.261-.806,1.048-3.325,1.056-3.351l.053-.17H105.9c.177-.545.433-1.577.513-1.9h11.74l1.27-4.072H101.13L96.366,18.526Z" fill="#fff"/><path d="M49.447,26.7c-.144.506-.946.72-1.179.693-.771-.083-.867-.45-.845-1.314h4.493l.027-.1a5.342,5.342,0,0,0,.236-1.481c0-1.428-1.6-1.944-2.371-1.97-1.957-.063-4.245.323-4.588,3.93a1.667,1.667,0,0,0,.481,1.355,3.137,3.137,0,0,0,2.171.827c.054,0,.107,0,.158,0l.158-.008A3.69,3.69,0,0,0,51.735,26.8l.11-.2-2.368,0ZM48.29,24.044a1.661,1.661,0,0,1,1.571.012.763.763,0,0,1,.31.694l-2.521-.031A1.1,1.1,0,0,1,48.29,24.044Z" fill="#fff"/><path d="M28.948,21.941h2.581l.358-1.543H29.306Z" fill="#fff"/><path d="M57.379,24.373l.04-.127c0-.007.226-.721.4-1.488l.026-.116-.113-.038a2.174,2.174,0,0,0-1.269.133,2.935,2.935,0,0,0-.951.593l.207-.733H53.4l-.132-.007v.131c-.019.185-.837,3.5-1.382,5.689l-.041.163H54.3l.841-3.592c.506-1.155,2.049-.671,2.115-.65Z" fill="#fff"/><path d="M37.026,18.786a13.516,13.516,0,0,0,2.271.143,31.133,31.133,0,0,0,3.579-.208c8.311-.99,9.877-7.269,11.391-13.34.212-.85.431-1.729.666-2.582l.046-.166h-6.34l-.03.09c-.533,1.6-.916,3.187-1.255,4.586-1.1,4.53-1.89,7.8-6.4,7.8-2.043,0-3.036-.73-3.036-2.233,0-.587,2.09-7.472,2.9-10.076l.053-.17H34.38L31.315,13.656C31.077,16.445,32.732,17.932,37.026,18.786Z" fill="#fff"/><path d="M15.215,12.747h8.3l-1.858,5.91h6.152L32.583,2.633H26.5L24.916,8.018h-8.3L18.2,2.633H11.982L7.151,18.657H13.5Z" fill="#fff"/><path d="M19.479,23.351a2.142,2.142,0,0,0-1.533-.72,3.034,3.034,0,0,0-2.145.81l.178-.811H13.6l-1.553,5.943h2.583l.025-.1c.214-.833.807-3.579.806-3.585a1.28,1.28,0,0,1,1.149-.716.648.648,0,0,1,.544.18.781.781,0,0,1,.115.58c-.3,1.278-.8,3.437-.8,3.542v.131h2.285l.881-4.142A1.365,1.365,0,0,0,19.479,23.351Z" fill="#fff"/><path d="M28.152,22.732l.047-.167H25.855l-.17.451a3.455,3.455,0,0,0-1.748-.484,3.722,3.722,0,0,0-2.817,1.049,3.617,3.617,0,0,0-1.08,2.632,2.181,2.181,0,0,0,2.475,2.3,3.3,3.3,0,0,0,1.872-.65c-.265,1.106-.668,1.549-1.42,1.6-.648.046-1.122-.211-1.178-.639l-.015-.114-2.236,0,.007.138c0,.019.125,1.876,2.7,1.931.116,0,.228,0,.338,0,3.572,0,3.891-1.319,4.787-5.018C27.586,24.882,27.827,23.887,28.152,22.732Zm-3.277,3.014c-.326,1.156-.785,1.534-1.64,1.352-.542-.117-.771-.607-.682-1.46a2.675,2.675,0,0,1,.775-1.788,1.117,1.117,0,0,1,.692-.225,1.574,1.574,0,0,1,.251.021.781.781,0,0,1,.553.36A2.253,2.253,0,0,1,24.875,25.746Z" fill="#fff"/><path d="M7.932,25.487h4.193l.462-1.839H8.435l.453-1.576h4.29l.468-1.707H6.773L4.524,28.574h6.942l.393-1.642H7.541Z" fill="#fff"/><path d="M92.013,22.468a4.3,4.3,0,0,0-3.156,1.156,3.832,3.832,0,0,0-1.14,2.717c0,1.4,1.1,2.266,2.871,2.266a4.69,4.69,0,0,0,3.441-1.167,3.747,3.747,0,0,0,1.02-2.74C95.041,22.674,93.545,22.486,92.013,22.468ZM92.39,25.8c-.352.924-.737,1.444-1.659,1.361a.717.717,0,0,1-.55-.3,1.65,1.65,0,0,1-.093-1.341c.289-1.115.656-1.813,1.556-1.813.048,0,.1,0,.15.006a.812.812,0,0,1,.649.37A1.984,1.984,0,0,1,92.39,25.8Z" fill="#fff"/><path d="M136.4,27.468c0-.209-.123-.311-.383-.311h-.424v1.088h.171v-.468h.18l.3.468h.183l-.313-.481A.28.28,0,0,0,136.4,27.468Zm-.458.172h-.178v-.346h.225c.115,0,.24.022.24.167C136.23,27.632,136.093,27.64,135.943,27.64Z" fill="#fff"/><path d="M127.562,22.5a3.085,3.085,0,0,0-2.185.842l.105-.811h-2.168l-1.449,6.042h2.316l.025-.1c.213-.832.872-3.708.872-3.716a1.28,1.28,0,0,1,1.149-.716.656.656,0,0,1,.544.18.781.781,0,0,1,.115.58c-.31,1.315-.829,3.536-.829,3.641v.131h2.285l.914-4.24a1.374,1.374,0,0,0-.161-1.112A2.129,2.129,0,0,0,127.562,22.5Z" fill="#fff"/><path d="M119.644,22.381l-.243-.013c-3.085-.173-3.4,1.7-3.4,1.721l-.023.153,2.1-.038v-.129a.4.4,0,0,1,.131-.249,1.255,1.255,0,0,1,.917-.211.315.315,0,0,1,.257.118c.055.076.127.269.011.711-.333.024-.683.027-1.052.03-1.148.01-2.335.02-3,.706a2.142,2.142,0,0,0-.52,1.625,1.676,1.676,0,0,0,1.6,1.7,2.9,2.9,0,0,0,2.287-.535c-.1.239-.162.394-.093.509a.2.2,0,0,0,.163.092h2.123l.02-.107c.194-1.037.4-1.849.566-2.5a10.674,10.674,0,0,0,.393-2.047C121.937,22.5,121.266,22.467,119.644,22.381Zm-.576,4.189c-.136.506-.911.794-1.487.7a.685.685,0,0,1-.662-.729,1.049,1.049,0,0,1,.4-.82,2.344,2.344,0,0,1,1.4-.365,5,5,0,0,1,.616.039C119.286,25.643,119.175,26.168,119.068,26.57Z" fill="#fff"/><path d="M140.472,3.946a4.3,4.3,0,0,0-3.626-1.31c-1.1.016-15.533,0-15.533,0L116.57,18.592h6.4l1.73-5.3h5.543c.436,0,.875,0,1.037.214a.708.708,0,0,1,.015.61l-1.28,4.406h7.3l.024-.1c.1-.41.952-4.015.976-4.254a2.793,2.793,0,0,0-.425-2.24,2.943,2.943,0,0,0-2.123-.67l.033-.007c1.8-.375,4.519-.942,5.3-4.684A3.078,3.078,0,0,0,140.472,3.946Zm-5.694,3.807c-.137,1.309-1.763,1.5-2.721,1.5h-6.209l.778-2.616h6.62a1.708,1.708,0,0,1,1.307.418A.919.919,0,0,1,134.778,7.753Z" fill="#fff"/><path d="M112.6,22.434a4,4,0,0,0-2.253.588l.112-.424h-2.519l-1.945,7.914h2.514l.651-2.529a2.331,2.331,0,0,0,2.2.688,3.843,3.843,0,0,0,3.242-3.087,3,3,0,0,0-.416-2.416A1.95,1.95,0,0,0,112.6,22.434ZM112.274,26c-.312.838-.693,1.343-1.613,1.26a.717.717,0,0,1-.55-.3,1.65,1.65,0,0,1-.093-1.341c.289-1.115.656-1.813,1.556-1.813q.074,0,.15.006a.746.746,0,0,1,.6.349A2.169,2.169,0,0,1,112.274,26Z" fill="#fff"/><path d="M133.06,25.64,132.5,22.6H130.1l.939,5.876-1.545,2.037h2.347l5.529-7.913h-2.236Z" fill="#fff"/><path d="M135.961,26.771a.932.932,0,1,0,.938.926A.93.93,0,0,0,135.961,26.771Zm0,1.726a.795.795,0,1,1,.768-.8A.771.771,0,0,1,135.961,28.5Z" fill="#fff"/><path d="M73.563,22.984a3.455,3.455,0,0,0-1.748-.484A3.727,3.727,0,0,0,69,23.549a3.617,3.617,0,0,0-1.08,2.632,2.181,2.181,0,0,0,2.475,2.3,3.3,3.3,0,0,0,1.872-.65c-.264,1.106-.668,1.549-1.42,1.6-.648.047-1.122-.21-1.178-.639l-.015-.114-2.236,0,.007.138c0,.019.125,1.876,2.7,1.931.116,0,.228,0,.338,0,3.572,0,3.892-1.319,4.787-5.018.213-.878.453-1.873.779-3.028l.047-.167H73.733Zm-.809,2.729c-.326,1.156-.785,1.535-1.64,1.352-.542-.117-.771-.607-.682-1.46a2.675,2.675,0,0,1,.775-1.788,1.117,1.117,0,0,1,.692-.225,1.574,1.574,0,0,1,.251.021.785.785,0,0,1,.554.36A2.263,2.263,0,0,1,72.754,25.713Z" fill="#fff"/><path d="M67.459,23.222a2.144,2.144,0,0,0-1.535-.722,3.08,3.08,0,0,0-2.185.842l.105-.811H61.676l-1.449,6.042h2.315l.025-.1c.214-.832.872-3.708.872-3.716a1.28,1.28,0,0,1,1.149-.716.648.648,0,0,1,.544.18.781.781,0,0,1,.115.58c-.31,1.315-.829,3.536-.829,3.641v.131H66.7l.914-4.24A1.362,1.362,0,0,0,67.459,23.222Z" fill="#fff"/><path d="M106.788,23.878c0-.575-.274-1.27-1.579-1.313a3.714,3.714,0,0,0-2.753.865,1.463,1.463,0,0,0-1.4-.832,3.438,3.438,0,0,0-2.244.654l.164-.654H96.225L94.81,28.574h2.713l.884-3.727a.85.85,0,0,1,.987-.673.808.808,0,0,1,.621.23.558.558,0,0,1,.112.4L99.3,28.573h2.378l.953-3.695a.848.848,0,0,1,.934-.706h.052a.792.792,0,0,1,.612.231.607.607,0,0,1,.121.429l-.9,3.741h2.252l1.079-4.666Z" fill="#fff"/><path d="M61.386,20.365H58.805l-.358,1.543h2.581Z" fill="#fff"/><path d="M58.377,22.532l-1.483,6.042h2.482l1.518-6.042Z" fill="#fff"/><path d="M84.564,25.656A1.968,1.968,0,0,1,82.7,26.833a1.37,1.37,0,0,1-1.481-1.356,4.938,4.938,0,0,1,1.249-3.208,1.831,1.831,0,0,1,1.51-.559c1.069.112,1.134.463,1.217.907l.041.21h2.7l.016-.113A2.362,2.362,0,0,0,85.7,20.105a6.327,6.327,0,0,0-5.021.962,6.12,6.12,0,0,0-1.993,4.412,2.728,2.728,0,0,0,.654,2.11,3.6,3.6,0,0,0,2.6,1.05c.142,0,.28.007.417.007,2.686,0,4.278-.949,4.862-2.892l.051-.169H84.6Z" fill="#fff"/><path d="M68.7,9.674,64.324,2.633h-7.3L52.194,18.657h6.745l2.19-7.693,4.9,7.693h6.9L77.556,2.633H70.885Z" fill="#fff"/><path d="M81.475,18.657h6.677l3.234-11.1H98.05l1.464-4.926H79.178L77.645,7.624h7.064Z" fill="#fff"/></svg>